<?xml version="1.0" encoding="UTF-8" standalone="no"?><svg xmlns="http://www.w3.org/2000/svg" xmlns:xlink="http://www.w3.org/1999/xlink" contentScriptType="application/ecmascript" contentStyleType="text/css" height="888px" preserveAspectRatio="none" style="width:957px;height:888px;background:#FFFFFF;" version="1.1" viewBox="0 0 957 888" width="957px" zoomAndPan="magnify"><defs><filter height="300%" id="f14yjcd2bknjbq" width="300%" x="-1" y="-1"><feGaussianBlur result="blurOut" stdDeviation="2.0"/><feColorMatrix in="blurOut" result="blurOut2" type="matrix" values="0 0 0 0 0 0 0 0 0 0 0 0 0 0 0 0 0 0 .4 0"/><feOffset dx="4.0" dy="4.0" in="blurOut2" result="blurOut3"/><feBlend in="SourceGraphic" in2="blurOut3" mode="normal"/></filter></defs><g><text fill="#000000" font-family="sans-serif" font-size="18" lengthAdjust="spacing" textLength="296" x="328.5" y="29.4023">일회용컵 비과세 &gt; 오더 &gt; Create 요소</text><rect fill="#FFFFFF" filter="url(#f14yjcd2bknjbq)" height="151.2422" style="stroke:#A80036;stroke-width:1.0;" width="10" x="270.5" y="643.2773"/><rect fill="#FFFFFF" filter="url(#f14yjcd2bknjbq)" height="166.5527" style="stroke:#A80036;stroke-width:1.0;" width="10" x="373" y="158.3086"/><rect fill="#FFFFFF" filter="url(#f14yjcd2bknjbq)" height="197.1738" style="stroke:#A80036;stroke-width:1.0;" width="10" x="373" y="385.4824"/><rect fill="#FFFFFF" filter="url(#f14yjcd2bknjbq)" height="53.3105" style="stroke:#A80036;stroke-width:1.0;" width="10" x="520" y="257.5508"/><rect fill="#FFFFFF" filter="url(#f14yjcd2bknjbq)" height="53.3105" style="stroke:#A80036;stroke-width:1.0;" width="10" x="520" y="515.3457"/><rect fill="#FFFFFF" filter="url(#f14yjcd2bknjbq)" height="68.6211" style="stroke:#A80036;stroke-width:1.0;" width="10" x="520" y="711.8984"/><rect fill="#FFFFFF" filter="url(#f14yjcd2bknjbq)" height="213.1738" style="stroke:#000000;stroke-width:2.0;" width="869" x="74" y="119.6875"/><rect fill="#FFFFFF" filter="url(#f14yjcd2bknjbq)" height="243.7949" style="stroke:#000000;stroke-width:2.0;" width="739" x="138" y="346.8613"/><rect fill="#FFFFFF" filter="url(#f14yjcd2bknjbq)" height="197.8633" style="stroke:#000000;stroke-width:2.0;" width="550" x="10" y="604.6563"/><line style="stroke:#A80036;stroke-width:1.0;stroke-dasharray:5.0,5.0;" x1="47" x2="47" y1="102.6875" y2="819.5195"/><line style="stroke:#A80036;stroke-width:1.0;stroke-dasharray:5.0,5.0;" x1="111" x2="111" y1="102.6875" y2="819.5195"/><line style="stroke:#A80036;stroke-width:1.0;stroke-dasharray:5.0,5.0;" x1="178" x2="178" y1="102.6875" y2="819.5195"/><line style="stroke:#A80036;stroke-width:1.0;stroke-dasharray:5.0,5.0;" x1="275" x2="275" y1="102.6875" y2="819.5195"/><line style="stroke:#A80036;stroke-width:1.0;stroke-dasharray:5.0,5.0;" x1="378" x2="378" y1="102.6875" y2="819.5195"/><line style="stroke:#A80036;stroke-width:1.0;stroke-dasharray:5.0,5.0;" x1="525" x2="525" y1="102.6875" y2="819.5195"/><rect fill="#FEFECE" filter="url(#f14yjcd2bknjbq)" height="30.4883" style="stroke:#A80036;stroke-width:1.5;" width="50" x="20" y="67.1992"/><text fill="#000000" font-family="sans-serif" font-size="14" lengthAdjust="spacing" textLength="36" x="27" y="87.7344">고릴라</text><rect fill="#FEFECE" filter="url(#f14yjcd2bknjbq)" height="30.4883" style="stroke:#A80036;stroke-width:1.5;" width="50" x="20" y="818.5195"/><text fill="#000000" font-family="sans-serif" font-size="14" lengthAdjust="spacing" textLength="36" x="27" y="839.0547">고릴라</text><rect fill="#FEFECE" filter="url(#f14yjcd2bknjbq)" height="30.4883" style="stroke:#A80036;stroke-width:1.5;" width="50" x="84" y="67.1992"/><text fill="#000000" font-family="sans-serif" font-size="14" lengthAdjust="spacing" textLength="36" x="91" y="87.7344">상점앱</text><rect fill="#FEFECE" filter="url(#f14yjcd2bknjbq)" height="30.4883" style="stroke:#A80036;stroke-width:1.5;" width="50" x="84" y="818.5195"/><text fill="#000000" font-family="sans-serif" font-size="14" lengthAdjust="spacing" textLength="36" x="91" y="839.0547">상점앱</text><rect fill="#FEFECE" filter="url(#f14yjcd2bknjbq)" height="30.4883" style="stroke:#A80036;stroke-width:1.5;" width="56" x="148" y="67.1992"/><text fill="#000000" font-family="sans-serif" font-size="14" lengthAdjust="spacing" textLength="42" x="155" y="87.7344">상점CS</text><rect fill="#FEFECE" filter="url(#f14yjcd2bknjbq)" height="30.4883" style="stroke:#A80036;stroke-width:1.5;" width="56" x="148" y="818.5195"/><text fill="#000000" font-family="sans-serif" font-size="14" lengthAdjust="spacing" textLength="42" x="155" y="839.0547">상점CS</text><rect fill="#FEFECE" filter="url(#f14yjcd2bknjbq)" height="30.4883" style="stroke:#A80036;stroke-width:1.5;" width="111" x="218" y="67.1992"/><text fill="#000000" font-family="sans-serif" font-size="14" lengthAdjust="spacing" textLength="97" x="225" y="87.7344">ZOO_OpenApi</text><rect fill="#FEFECE" filter="url(#f14yjcd2bknjbq)" height="30.4883" style="stroke:#A80036;stroke-width:1.5;" width="111" x="218" y="818.5195"/><text fill="#000000" font-family="sans-serif" font-size="14" lengthAdjust="spacing" textLength="97" x="225" y="839.0547">ZOO_OpenApi</text><rect fill="#FEFECE" filter="url(#f14yjcd2bknjbq)" height="30.4883" style="stroke:#A80036;stroke-width:1.5;" width="66" x="343" y="67.1992"/><text fill="#000000" font-family="sans-serif" font-size="14" lengthAdjust="spacing" textLength="52" x="350" y="87.7344">O2oApi</text><rect fill="#FEFECE" filter="url(#f14yjcd2bknjbq)" height="30.4883" style="stroke:#A80036;stroke-width:1.5;" width="66" x="343" y="818.5195"/><text fill="#000000" font-family="sans-serif" font-size="14" lengthAdjust="spacing" textLength="52" x="350" y="839.0547">O2oApi</text><text fill="#000000" font-family="sans-serif" font-size="14" lengthAdjust="spacing" textLength="44" x="500" y="99.7344">Oracle</text><path d="M507,50.1992 C507,40.1992 525,40.1992 525,40.1992 C525,40.1992 543,40.1992 543,50.1992 L543,76.1992 C543,86.1992 525,86.1992 525,86.1992 C525,86.1992 507,86.1992 507,76.1992 L507,50.1992 " fill="#FEFECE" filter="url(#f14yjcd2bknjbq)" style="stroke:#000000;stroke-width:1.5;"/><path d="M507,50.1992 C507,60.1992 525,60.1992 525,60.1992 C525,60.1992 543,60.1992 543,50.1992 " fill="none" style="stroke:#000000;stroke-width:1.5;"/><text fill="#000000" font-family="sans-serif" font-size="14" lengthAdjust="spacing" textLength="44" x="500" y="832.0547">Oracle</text><path d="M507,845.0078 C507,835.0078 525,835.0078 525,835.0078 C525,835.0078 543,835.0078 543,845.0078 L543,871.0078 C543,881.0078 525,881.0078 525,881.0078 C525,881.0078 507,881.0078 507,871.0078 L507,845.0078 " fill="#FEFECE" filter="url(#f14yjcd2bknjbq)" style="stroke:#000000;stroke-width:1.5;"/><path d="M507,845.0078 C507,855.0078 525,855.0078 525,855.0078 C525,855.0078 543,855.0078 543,845.0078 " fill="none" style="stroke:#000000;stroke-width:1.5;"/><rect fill="#FFFFFF" filter="url(#f14yjcd2bknjbq)" height="151.2422" style="stroke:#A80036;stroke-width:1.0;" width="10" x="270.5" y="643.2773"/><rect fill="#FFFFFF" filter="url(#f14yjcd2bknjbq)" height="166.5527" style="stroke:#A80036;stroke-width:1.0;" width="10" x="373" y="158.3086"/><rect fill="#FFFFFF" filter="url(#f14yjcd2bknjbq)" height="197.1738" style="stroke:#A80036;stroke-width:1.0;" width="10" x="373" y="385.4824"/><rect fill="#FFFFFF" filter="url(#f14yjcd2bknjbq)" height="53.3105" style="stroke:#A80036;stroke-width:1.0;" width="10" x="520" y="257.5508"/><rect fill="#FFFFFF" filter="url(#f14yjcd2bknjbq)" height="53.3105" style="stroke:#A80036;stroke-width:1.0;" width="10" x="520" y="515.3457"/><rect fill="#FFFFFF" filter="url(#f14yjcd2bknjbq)" height="68.6211" style="stroke:#A80036;stroke-width:1.0;" width="10" x="520" y="711.8984"/><path d="M74,119.6875 L211,119.6875 L211,126.6875 L201,136.6875 L74,136.6875 L74,119.6875 " fill="#EEEEEE" style="stroke:#000000;stroke-width:1.0;"/><rect fill="none" height="213.1738" style="stroke:#000000;stroke-width:2.0;" width="869" x="74" y="119.6875"/><text fill="#000000" font-family="sans-serif" font-size="13" font-weight="bold" lengthAdjust="spacing" textLength="92" x="89" y="133.2559">상점앱으로 접수시</text><polygon fill="#A80036" points="361,154.3086,371,158.3086,361,162.3086,365,158.3086" style="stroke:#A80036;stroke-width:1.0;"/><line style="stroke:#A80036;stroke-width:1.0;" x1="111" x2="367" y1="158.3086" y2="158.3086"/><text fill="#000000" font-family="sans-serif" font-size="13" lengthAdjust="spacing" textLength="94" x="118" y="153.5664">주문접수 API 호출</text><path d="M116,171.3086 L116,226.3086 L507,226.3086 L507,181.3086 L497,171.3086 L116,171.3086 " fill="#FBFB77" filter="url(#f14yjcd2bknjbq)" style="stroke:#A80036;stroke-width:1.0;"/><path d="M497,171.3086 L497,181.3086 L507,181.3086 L497,171.3086 " fill="#FBFB77" style="stroke:#A80036;stroke-width:1.0;"/><text fill="#000000" font-family="sans-serif" font-size="13" lengthAdjust="spacing" textLength="167" x="122" y="188.877">- 사용자가 입력한 값을 사용한다</text><text fill="#000000" font-family="sans-serif" font-size="13" lengthAdjust="spacing" textLength="85" x="122" y="204.1875">- 접수 호출시 &gt;</text><text fill="#000000" font-family="sans-serif" font-size="13" lengthAdjust="spacing" text-decoration="underline" textLength="70" x="211" y="204.1875">PAY_LATER</text><text fill="#000000" font-family="sans-serif" font-size="13" lengthAdjust="spacing" textLength="74" x="285" y="204.1875">에 값 추가필요</text><text fill="#000000" font-family="sans-serif" font-size="13" lengthAdjust="spacing" textLength="8" x="122" y="219.498">-</text><text fill="#000000" font-family="sans-serif" font-size="13" font-weight="bold" lengthAdjust="spacing" textLength="358" x="134" y="219.498">부가세 산정시 ORD_AMT - PAY_LATER 금액을 기준으로 해야함</text><polygon fill="#A80036" points="508,253.5508,518,257.5508,508,261.5508,512,257.5508" style="stroke:#A80036;stroke-width:1.0;"/><line style="stroke:#A80036;stroke-width:1.0;" x1="383" x2="514" y1="257.5508" y2="257.5508"/><text fill="#000000" font-family="sans-serif" font-size="13" lengthAdjust="spacing" textLength="118" x="390" y="252.8086">주문접수 프로시저 호출</text><path d="M535,270.5508 L535,295.5508 L929,295.5508 L929,280.5508 L919,270.5508 L535,270.5508 " fill="#FBFB77" filter="url(#f14yjcd2bknjbq)" style="stroke:#A80036;stroke-width:1.0;"/><path d="M919,270.5508 L919,280.5508 L929,280.5508 L919,270.5508 " fill="#FBFB77" style="stroke:#A80036;stroke-width:1.0;"/><text fill="#000000" font-family="sans-serif" font-size="13" lengthAdjust="spacing" textLength="251" x="541" y="288.1191">PKG_AST_01_HANDLE.SP_PUT_ORDER &gt;</text><text fill="#000000" font-family="sans-serif" font-size="13" lengthAdjust="spacing" text-decoration="underline" textLength="70" x="796" y="288.1191">PAY_LATER</text><text fill="#000000" font-family="sans-serif" font-size="13" lengthAdjust="spacing" textLength="44" x="870" y="288.1191">추가필요</text><polygon fill="#A80036" points="394,306.8613,384,310.8613,394,314.8613,390,310.8613" style="stroke:#A80036;stroke-width:1.0;"/><line style="stroke:#A80036;stroke-width:1.0;stroke-dasharray:2.0,2.0;" x1="388" x2="524" y1="310.8613" y2="310.8613"/><polygon fill="#A80036" points="122,320.8613,112,324.8613,122,328.8613,118,324.8613" style="stroke:#A80036;stroke-width:1.0;"/><line style="stroke:#A80036;stroke-width:1.0;stroke-dasharray:2.0,2.0;" x1="116" x2="377" y1="324.8613" y2="324.8613"/><path d="M138,346.8613 L280,346.8613 L280,353.8613 L270,363.8613 L138,363.8613 L138,346.8613 " fill="#EEEEEE" style="stroke:#000000;stroke-width:1.0;"/><rect fill="none" height="243.7949" style="stroke:#000000;stroke-width:2.0;" width="739" x="138" y="346.8613"/><text fill="#000000" font-family="sans-serif" font-size="13" font-weight="bold" lengthAdjust="spacing" textLength="97" x="153" y="360.4297">상점CS에서 접수시</text><polygon fill="#A80036" points="361,381.4824,371,385.4824,361,389.4824,365,385.4824" style="stroke:#A80036;stroke-width:1.0;"/><line style="stroke:#A80036;stroke-width:1.0;" x1="178" x2="367" y1="385.4824" y2="385.4824"/><text fill="#000000" font-family="sans-serif" font-size="13" lengthAdjust="spacing" textLength="94" x="185" y="380.7402">주문접수 API 호출</text><path d="M183,398.4824 L183,484.4824 L574,484.4824 L574,408.4824 L564,398.4824 L183,398.4824 " fill="#FBFB77" filter="url(#f14yjcd2bknjbq)" style="stroke:#A80036;stroke-width:1.0;"/><path d="M564,398.4824 L564,408.4824 L574,408.4824 L564,398.4824 " fill="#FBFB77" style="stroke:#A80036;stroke-width:1.0;"/><text fill="#000000" font-family="sans-serif" font-size="13" lengthAdjust="spacing" textLength="259" x="189" y="416.0508">- 유저인풋으로 접수하는 기능에는 적용하지 않는다</text><text fill="#000000" font-family="sans-serif" font-size="13" lengthAdjust="spacing" textLength="225" x="189" y="431.3613">- 배민 DLL 로 접수되는 오더에 한해서 적용</text><text fill="#000000" font-family="sans-serif" font-size="13" lengthAdjust="spacing" textLength="321" x="189" y="446.6719">- 배민 DLL 에서 메모에 포함하여 보내주는 값을 파싱해서 쓴다</text><text fill="#000000" font-family="sans-serif" font-size="13" lengthAdjust="spacing" textLength="85" x="189" y="461.9824">- 접수 호출시 &gt;</text><text fill="#000000" font-family="sans-serif" font-size="13" lengthAdjust="spacing" text-decoration="underline" textLength="70" x="278" y="461.9824">PAY_LATER</text><text fill="#000000" font-family="sans-serif" font-size="13" lengthAdjust="spacing" textLength="74" x="352" y="461.9824">에 값 추가필요</text><text fill="#000000" font-family="sans-serif" font-size="13" lengthAdjust="spacing" textLength="8" x="189" y="477.293">-</text><text fill="#000000" font-family="sans-serif" font-size="13" font-weight="bold" lengthAdjust="spacing" textLength="358" x="201" y="477.293">부가세 산정시 ORD_AMT - PAY_LATER 금액을 기준으로 해야함</text><polygon fill="#A80036" points="508,511.3457,518,515.3457,508,519.3457,512,515.3457" style="stroke:#A80036;stroke-width:1.0;"/><line style="stroke:#A80036;stroke-width:1.0;" x1="383" x2="514" y1="515.3457" y2="515.3457"/><text fill="#000000" font-family="sans-serif" font-size="13" lengthAdjust="spacing" textLength="118" x="390" y="510.6035">주문접수 프로시저 호출</text><path d="M535,528.3457 L535,553.3457 L863,553.3457 L863,538.3457 L853,528.3457 L535,528.3457 " fill="#FBFB77" filter="url(#f14yjcd2bknjbq)" style="stroke:#A80036;stroke-width:1.0;"/><path d="M853,528.3457 L853,538.3457 L863,538.3457 L853,528.3457 " fill="#FBFB77" style="stroke:#A80036;stroke-width:1.0;"/><text fill="#000000" font-family="sans-serif" font-size="13" lengthAdjust="spacing" textLength="185" x="541" y="545.9141">SP_CSC_0203_V_20140723 &gt;</text><text fill="#000000" font-family="sans-serif" font-size="13" lengthAdjust="spacing" text-decoration="underline" textLength="70" x="730" y="545.9141">PAY_LATER</text><text fill="#000000" font-family="sans-serif" font-size="13" lengthAdjust="spacing" textLength="44" x="804" y="545.9141">추가필요</text><polygon fill="#A80036" points="394,564.6563,384,568.6563,394,572.6563,390,568.6563" style="stroke:#A80036;stroke-width:1.0;"/><line style="stroke:#A80036;stroke-width:1.0;stroke-dasharray:2.0,2.0;" x1="388" x2="524" y1="568.6563" y2="568.6563"/><polygon fill="#A80036" points="189,578.6563,179,582.6563,189,586.6563,185,582.6563" style="stroke:#A80036;stroke-width:1.0;"/><line style="stroke:#A80036;stroke-width:1.0;stroke-dasharray:2.0,2.0;" x1="183" x2="377" y1="582.6563" y2="582.6563"/><path d="M10,604.6563 L158,604.6563 L158,611.6563 L148,621.6563 L10,621.6563 L10,604.6563 " fill="#EEEEEE" style="stroke:#000000;stroke-width:1.0;"/><rect fill="none" height="197.8633" style="stroke:#000000;stroke-width:2.0;" width="550" x="10" y="604.6563"/><text fill="#000000" font-family="sans-serif" font-size="13" font-weight="bold" lengthAdjust="spacing" textLength="103" x="25" y="618.2246">고릴라로부터 접수시</text><polygon fill="#A80036" points="258.5,639.2773,268.5,643.2773,258.5,647.2773,262.5,643.2773" style="stroke:#A80036;stroke-width:1.0;"/><line style="stroke:#A80036;stroke-width:1.0;" x1="47" x2="264.5" y1="643.2773" y2="643.2773"/><text fill="#000000" font-family="sans-serif" font-size="13" lengthAdjust="spacing" textLength="94" x="54" y="638.5352">주문접수 API 호출</text><path d="M52,656.2773 L52,681.2773 L345,681.2773 L345,666.2773 L335,656.2773 L52,656.2773 " fill="#FBFB77" filter="url(#f14yjcd2bknjbq)" style="stroke:#A80036;stroke-width:1.0;"/><path d="M335,656.2773 L335,666.2773 L345,666.2773 L335,656.2773 " fill="#FBFB77" style="stroke:#A80036;stroke-width:1.0;"/><text fill="#000000" font-family="sans-serif" font-size="13" lengthAdjust="spacing" textLength="272" x="58" y="673.8457">접수 호출시 &gt; taxFreePayAmount 에 값 추가필요</text><polygon fill="#A80036" points="508,707.8984,518,711.8984,508,715.8984,512,711.8984" style="stroke:#A80036;stroke-width:1.0;"/><line style="stroke:#A80036;stroke-width:1.0;" x1="280.5" x2="514" y1="711.8984" y2="711.8984"/><text fill="#000000" font-family="sans-serif" font-size="13" lengthAdjust="spacing" textLength="70" x="287.5" y="707.1563">오더 INSERT</text><path d="M285,724.8984 L285,764.8984 L475,764.8984 L475,734.8984 L465,724.8984 L285,724.8984 " fill="#FBFB77" filter="url(#f14yjcd2bknjbq)" style="stroke:#A80036;stroke-width:1.0;"/><path d="M465,724.8984 L465,734.8984 L475,734.8984 L465,724.8984 " fill="#FBFB77" style="stroke:#A80036;stroke-width:1.0;"/><text fill="#000000" font-family="sans-serif" font-size="13" lengthAdjust="spacing" textLength="169" x="291" y="742.4668">taxFreePayAmount 값을 받아</text><text fill="#000000" font-family="sans-serif" font-size="13" lengthAdjust="spacing" text-decoration="underline" textLength="70" x="291" y="757.7773">PAY_LATER</text><text fill="#000000" font-family="sans-serif" font-size="13" lengthAdjust="spacing" textLength="48" x="365" y="757.7773">에 넣는다</text><polygon fill="#A80036" points="291.5,776.5195,281.5,780.5195,291.5,784.5195,287.5,780.5195" style="stroke:#A80036;stroke-width:1.0;"/><line style="stroke:#A80036;stroke-width:1.0;stroke-dasharray:2.0,2.0;" x1="285.5" x2="524" y1="780.5195" y2="780.5195"/><polygon fill="#A80036" points="58,790.5195,48,794.5195,58,798.5195,54,794.5195" style="stroke:#A80036;stroke-width:1.0;"/><line style="stroke:#A80036;stroke-width:1.0;stroke-dasharray:2.0,2.0;" x1="52" x2="274.5" y1="794.5195" y2="794.5195"/><!--MD5=[a7bc8c3510174202dfac4a256b016bf6]
@startuml
participant 고릴라
participant 상점앱
participant 상점CS
participant ZOO_OpenApi
participant O2oApi
database Oracle

title 일회용컵 비과세 > 오더 > Create 요소

group 상점앱으로 접수시
    상점앱 -> O2oApi ++ : 주문접수 API 호출
    note right of 상점앱
        - 사용자가 입력한 값을 사용한다
        - 접수 호출시 > __PAY_LATER__ 에 값 추가필요
        - **부가세 산정시 ORD_AMT - PAY_LATER 금액을 기준으로 해야함**
    end note
    O2oApi -> Oracle ++ : 주문접수 프로시저 호출
    note right of Oracle
        PKG_AST_01_HANDLE.SP_PUT_ORDER > __PAY_LATER__ 추가필요
    end note
    return
    return
end

group 상점CS에서 접수시
    상점CS -> O2oApi ++ : 주문접수 API 호출
    note right of 상점CS
        - 유저인풋으로 접수하는 기능에는 적용하지 않는다
        - 배민 DLL 로 접수되는 오더에 한해서 적용
        - 배민 DLL 에서 메모에 포함하여 보내주는 값을 파싱해서 쓴다
        - 접수 호출시 > __PAY_LATER__ 에 값 추가필요
        - **부가세 산정시 ORD_AMT - PAY_LATER 금액을 기준으로 해야함**
    end note
    O2oApi -> Oracle ++ : 주문접수 프로시저 호출
    note right of Oracle
        SP_CSC_0203_V_20140723 > __PAY_LATER__ 추가필요
    end note
    return
    return
end

group 고릴라로부터 접수시
    고릴라 -> ZOO_OpenApi ++ : 주문접수 API 호출
    note right of 고릴라
        접수 호출시 > taxFreePayAmount 에 값 추가필요
    end note
    ZOO_OpenApi -> Oracle ++ : 오더 INSERT
    note right of ZOO_OpenApi
        taxFreePayAmount 값을 받아
        __PAY_LATER__ 에 넣는다
    end note
    return
    return
end
@enduml

PlantUML version 1.2022.0(Wed Jan 12 01:16:42 KST 2022)
(GPL source distribution)
Java Runtime: Java(TM) SE Runtime Environment
JVM: Java HotSpot(TM) 64-Bit Server VM
Default Encoding: UTF-8
Language: en
Country: KR
--></g></svg>