<?xml version="1.0" encoding="UTF-8" standalone="no"?><svg xmlns="http://www.w3.org/2000/svg" xmlns:xlink="http://www.w3.org/1999/xlink" contentScriptType="application/ecmascript" contentStyleType="text/css" height="535px" preserveAspectRatio="none" style="width:820px;height:535px;background:#FFFFFF;" version="1.1" viewBox="0 0 820 535" width="820px" zoomAndPan="magnify"><defs><filter height="300%" id="f1ugk2pm3t3v0u" width="300%" x="-1" y="-1"><feGaussianBlur result="blurOut" stdDeviation="2.0"/><feColorMatrix in="blurOut" result="blurOut2" type="matrix" values="0 0 0 0 0 0 0 0 0 0 0 0 0 0 0 0 0 0 .4 0"/><feOffset dx="4.0" dy="4.0" in="blurOut2" result="blurOut3"/><feBlend in="SourceGraphic" in2="blurOut3" mode="normal"/></filter></defs><g><text fill="#000000" font-family="sans-serif" font-size="18" lengthAdjust="spacing" textLength="314" x="251" y="29.4023">일회용컵 비과세 &gt; 결제내역 &gt; Read 요소</text><rect fill="#FFFFFF" filter="url(#f1ugk2pm3t3v0u)" height="111.9316" style="stroke:#A80036;stroke-width:1.0;" width="10" x="378" y="158.3086"/><rect fill="#FFFFFF" filter="url(#f1ugk2pm3t3v0u)" height="68.6211" style="stroke:#A80036;stroke-width:1.0;" width="10" x="525" y="187.6191"/><rect fill="#FFFFFF" filter="url(#f1ugk2pm3t3v0u)" height="158.5527" style="stroke:#000000;stroke-width:2.0;" width="666" x="140" y="119.6875"/><rect fill="#FFFFFF" filter="url(#f1ugk2pm3t3v0u)" height="71.9316" style="stroke:#000000;stroke-width:2.0;" width="468" x="10" y="292.2402"/><rect fill="#FFFFFF" filter="url(#f1ugk2pm3t3v0u)" height="71.9316" style="stroke:#000000;stroke-width:2.0;" width="361" x="130" y="378.1719"/><line style="stroke:#A80036;stroke-width:1.0;stroke-dasharray:5.0,5.0;" x1="177" x2="177" y1="102.6875" y2="467.1035"/><line style="stroke:#A80036;stroke-width:1.0;stroke-dasharray:5.0,5.0;" x1="244" x2="244" y1="102.6875" y2="467.1035"/><line style="stroke:#A80036;stroke-width:1.0;stroke-dasharray:5.0,5.0;" x1="311" x2="311" y1="102.6875" y2="467.1035"/><line style="stroke:#A80036;stroke-width:1.0;stroke-dasharray:5.0,5.0;" x1="383" x2="383" y1="102.6875" y2="467.1035"/><line style="stroke:#A80036;stroke-width:1.0;stroke-dasharray:5.0,5.0;" x1="530" x2="530" y1="102.6875" y2="467.1035"/><rect fill="#FEFECE" filter="url(#f1ugk2pm3t3v0u)" height="30.4883" style="stroke:#A80036;stroke-width:1.5;" width="50" x="150" y="67.1992"/><text fill="#000000" font-family="sans-serif" font-size="14" lengthAdjust="spacing" textLength="36" x="157" y="87.7344">상점앱</text><rect fill="#FEFECE" filter="url(#f1ugk2pm3t3v0u)" height="30.4883" style="stroke:#A80036;stroke-width:1.5;" width="50" x="150" y="466.1035"/><text fill="#000000" font-family="sans-serif" font-size="14" lengthAdjust="spacing" textLength="36" x="157" y="486.6387">상점앱</text><rect fill="#FEFECE" filter="url(#f1ugk2pm3t3v0u)" height="30.4883" style="stroke:#A80036;stroke-width:1.5;" width="56" x="214" y="67.1992"/><text fill="#000000" font-family="sans-serif" font-size="14" lengthAdjust="spacing" textLength="42" x="221" y="87.7344">상점CS</text><rect fill="#FEFECE" filter="url(#f1ugk2pm3t3v0u)" height="30.4883" style="stroke:#A80036;stroke-width:1.5;" width="56" x="214" y="466.1035"/><text fill="#000000" font-family="sans-serif" font-size="14" lengthAdjust="spacing" textLength="42" x="221" y="486.6387">상점CS</text><rect fill="#FEFECE" filter="url(#f1ugk2pm3t3v0u)" height="30.4883" style="stroke:#A80036;stroke-width:1.5;" width="50" x="284" y="67.1992"/><text fill="#000000" font-family="sans-serif" font-size="14" lengthAdjust="spacing" textLength="36" x="291" y="87.7344">관리자</text><rect fill="#FEFECE" filter="url(#f1ugk2pm3t3v0u)" height="30.4883" style="stroke:#A80036;stroke-width:1.5;" width="50" x="284" y="466.1035"/><text fill="#000000" font-family="sans-serif" font-size="14" lengthAdjust="spacing" textLength="36" x="291" y="486.6387">관리자</text><rect fill="#FEFECE" filter="url(#f1ugk2pm3t3v0u)" height="30.4883" style="stroke:#A80036;stroke-width:1.5;" width="66" x="348" y="67.1992"/><text fill="#000000" font-family="sans-serif" font-size="14" lengthAdjust="spacing" textLength="52" x="355" y="87.7344">O2oApi</text><rect fill="#FEFECE" filter="url(#f1ugk2pm3t3v0u)" height="30.4883" style="stroke:#A80036;stroke-width:1.5;" width="66" x="348" y="466.1035"/><text fill="#000000" font-family="sans-serif" font-size="14" lengthAdjust="spacing" textLength="52" x="355" y="486.6387">O2oApi</text><text fill="#000000" font-family="sans-serif" font-size="14" lengthAdjust="spacing" textLength="44" x="505" y="99.7344">Oracle</text><path d="M512,50.1992 C512,40.1992 530,40.1992 530,40.1992 C530,40.1992 548,40.1992 548,50.1992 L548,76.1992 C548,86.1992 530,86.1992 530,86.1992 C530,86.1992 512,86.1992 512,76.1992 L512,50.1992 " fill="#FEFECE" filter="url(#f1ugk2pm3t3v0u)" style="stroke:#000000;stroke-width:1.5;"/><path d="M512,50.1992 C512,60.1992 530,60.1992 530,60.1992 C530,60.1992 548,60.1992 548,50.1992 " fill="none" style="stroke:#000000;stroke-width:1.5;"/><text fill="#000000" font-family="sans-serif" font-size="14" lengthAdjust="spacing" textLength="44" x="505" y="479.6387">Oracle</text><path d="M512,492.5918 C512,482.5918 530,482.5918 530,482.5918 C530,482.5918 548,482.5918 548,492.5918 L548,518.5918 C548,528.5918 530,528.5918 530,528.5918 C530,528.5918 512,528.5918 512,518.5918 L512,492.5918 " fill="#FEFECE" filter="url(#f1ugk2pm3t3v0u)" style="stroke:#000000;stroke-width:1.5;"/><path d="M512,492.5918 C512,502.5918 530,502.5918 530,502.5918 C530,502.5918 548,502.5918 548,492.5918 " fill="none" style="stroke:#000000;stroke-width:1.5;"/><rect fill="#FFFFFF" filter="url(#f1ugk2pm3t3v0u)" height="111.9316" style="stroke:#A80036;stroke-width:1.0;" width="10" x="378" y="158.3086"/><rect fill="#FFFFFF" filter="url(#f1ugk2pm3t3v0u)" height="68.6211" style="stroke:#A80036;stroke-width:1.0;" width="10" x="525" y="187.6191"/><path d="M140,119.6875 L328,119.6875 L328,126.6875 L318,136.6875 L140,136.6875 L140,119.6875 " fill="#EEEEEE" style="stroke:#000000;stroke-width:1.0;"/><rect fill="none" height="158.5527" style="stroke:#000000;stroke-width:2.0;" width="666" x="140" y="119.6875"/><text fill="#000000" font-family="sans-serif" font-size="13" font-weight="bold" lengthAdjust="spacing" textLength="143" x="155" y="133.2559">상점앱, 라이더앱에서 조회시</text><polygon fill="#A80036" points="366,154.3086,376,158.3086,366,162.3086,370,158.3086" style="stroke:#A80036;stroke-width:1.0;"/><line style="stroke:#A80036;stroke-width:1.0;" x1="177" x2="372" y1="158.3086" y2="158.3086"/><text fill="#000000" font-family="sans-serif" font-size="13" lengthAdjust="spacing" textLength="120" x="184" y="153.5664">결제내역 조회 API 호출</text><polygon fill="#A80036" points="513,183.6191,523,187.6191,513,191.6191,517,187.6191" style="stroke:#A80036;stroke-width:1.0;"/><line style="stroke:#A80036;stroke-width:1.0;" x1="388" x2="519" y1="187.6191" y2="187.6191"/><text fill="#000000" font-family="sans-serif" font-size="13" lengthAdjust="spacing" textLength="118" x="395" y="182.877">결제내역 프로시저 호출</text><path d="M393,200.6191 L393,240.6191 L792,240.6191 L792,210.6191 L782,200.6191 L393,200.6191 " fill="#FBFB77" filter="url(#f1ugk2pm3t3v0u)" style="stroke:#A80036;stroke-width:1.0;"/><path d="M782,200.6191 L782,210.6191 L792,210.6191 L782,200.6191 " fill="#FBFB77" style="stroke:#A80036;stroke-width:1.0;"/><text fill="#000000" font-family="sans-serif" font-size="13" lengthAdjust="spacing" textLength="256" x="399" y="218.1875">PKG_AST_01_HANDLE.??? &gt; 결제내역 조회시</text><text fill="#000000" font-family="sans-serif" font-size="13" lengthAdjust="spacing" text-decoration="underline" textLength="70" x="659" y="218.1875">PAY_LATER</text><text fill="#000000" font-family="sans-serif" font-size="13" lengthAdjust="spacing" textLength="44" x="733" y="218.1875">추가필요</text><text fill="#000000" font-family="sans-serif" font-size="13" lengthAdjust="spacing" textLength="156" x="399" y="233.498">(결제요청 호출 할때 값이 필요)</text><polygon fill="#A80036" points="399,252.2402,389,256.2402,399,260.2402,395,256.2402" style="stroke:#A80036;stroke-width:1.0;"/><line style="stroke:#A80036;stroke-width:1.0;stroke-dasharray:2.0,2.0;" x1="393" x2="529" y1="256.2402" y2="256.2402"/><polygon fill="#A80036" points="188,266.2402,178,270.2402,188,274.2402,184,270.2402" style="stroke:#A80036;stroke-width:1.0;"/><line style="stroke:#A80036;stroke-width:1.0;stroke-dasharray:2.0,2.0;" x1="182" x2="382" y1="270.2402" y2="270.2402"/><path d="M10,292.2402 L156,292.2402 L156,299.2402 L146,309.2402 L10,309.2402 L10,292.2402 " fill="#EEEEEE" style="stroke:#000000;stroke-width:1.0;"/><rect fill="none" height="71.9316" style="stroke:#000000;stroke-width:2.0;" width="468" x="10" y="292.2402"/><text fill="#000000" font-family="sans-serif" font-size="13" font-weight="bold" lengthAdjust="spacing" textLength="101" x="25" y="305.8086">상점CS 에서 조회시</text><path d="M20,314.5508 L20,354.5508 L464,354.5508 L464,324.5508 L454,314.5508 L20,314.5508 " fill="#FBFB77" filter="url(#f1ugk2pm3t3v0u)" style="stroke:#A80036;stroke-width:1.0;"/><path d="M454,314.5508 L454,324.5508 L464,324.5508 L454,314.5508 " fill="#FBFB77" style="stroke:#A80036;stroke-width:1.0;"/><a href="https://barogo.slack.com/archives/C021G80QZB9/p1652683702820709?thread_ts=1652671814.168859&amp;cid=C021G80QZB9" target="_top" title="https://barogo.slack.com/archives/C021G80QZB9/p1652683702820709?thread_ts=1652671814.168859&amp;cid=C021G80QZB9" xlink:actuate="onRequest" xlink:href="https://barogo.slack.com/archives/C021G80QZB9/p1652683702820709?thread_ts=1652671814.168859&amp;cid=C021G80QZB9" xlink:show="new" xlink:title="https://barogo.slack.com/archives/C021G80QZB9/p1652683702820709?thread_ts=1652671814.168859&amp;cid=C021G80QZB9" xlink:type="simple"><text fill="#0000FF" font-family="sans-serif" font-size="13" lengthAdjust="spacing" text-decoration="underline" textLength="215" x="26" y="332.1191">상점CS에서는 메모로 보여주기로 의사결정</text></a><text fill="#000000" font-family="sans-serif" font-size="13" lengthAdjust="spacing" textLength="4" x="26" y="347.4297">(</text><text fill="#000000" font-family="sans-serif" font-size="13" font-weight="bold" lengthAdjust="spacing" textLength="22" x="30" y="347.4297">걱정</text><text fill="#000000" font-family="sans-serif" font-size="13" lengthAdjust="spacing" textLength="393" x="56" y="347.4297">: 상점앱에서 비과세금액을 변경해도 메모가 안바뀌니 착오가 생길것 같은데...)</text><path d="M130,378.1719 L338,378.1719 L338,385.1719 L328,395.1719 L130,395.1719 L130,378.1719 " fill="#EEEEEE" style="stroke:#000000;stroke-width:1.0;"/><rect fill="none" height="71.9316" style="stroke:#000000;stroke-width:2.0;" width="361" x="130" y="378.1719"/><text fill="#000000" font-family="sans-serif" font-size="13" font-weight="bold" lengthAdjust="spacing" textLength="163" x="145" y="391.7402">관리자 앱, 관리자CS에서 조회시</text><path d="M140,400.4824 L140,440.4824 L477,440.4824 L477,410.4824 L467,400.4824 L140,400.4824 " fill="#FBFB77" filter="url(#f1ugk2pm3t3v0u)" style="stroke:#A80036;stroke-width:1.0;"/><path d="M467,400.4824 L467,410.4824 L477,410.4824 L467,400.4824 " fill="#FBFB77" style="stroke:#A80036;stroke-width:1.0;"/><a href="https://barogo.slack.com/archives/C021G80QZB9/p1652683702820709?thread_ts=1652671814.168859&amp;cid=C021G80QZB9" target="_top" title="https://barogo.slack.com/archives/C021G80QZB9/p1652683702820709?thread_ts=1652671814.168859&amp;cid=C021G80QZB9" xlink:actuate="onRequest" xlink:href="https://barogo.slack.com/archives/C021G80QZB9/p1652683702820709?thread_ts=1652671814.168859&amp;cid=C021G80QZB9" xlink:show="new" xlink:title="https://barogo.slack.com/archives/C021G80QZB9/p1652683702820709?thread_ts=1652671814.168859&amp;cid=C021G80QZB9" xlink:type="simple"><text fill="#0000FF" font-family="sans-serif" font-size="13" lengthAdjust="spacing" text-decoration="underline" textLength="151" x="146" y="418.0508">관리자에서는 빼기로 의사결정</text></a><text fill="#000000" font-family="sans-serif" font-size="13" lengthAdjust="spacing" textLength="4" x="146" y="433.3613">(</text><text fill="#000000" font-family="sans-serif" font-size="13" font-weight="bold" lengthAdjust="spacing" textLength="22" x="150" y="433.3613">걱정</text><text fill="#000000" font-family="sans-serif" font-size="13" lengthAdjust="spacing" textLength="286" x="176" y="433.3613">: 상점이 문의하면 확인해주는 용도로 필요할것 같은데...)</text><!--MD5=[2cca3c9be2298893cdccf48b354804a8]
@startuml
participant 상점앱
participant 상점CS
participant 관리자
participant O2oApi
database Oracle

title 일회용컵 비과세 > 결제내역 > Read 요소

group 상점앱, 라이더앱에서 조회시
    상점앱 -> O2oApi ++ : 결제내역 조회 API 호출
    O2oApi -> Oracle ++ : 결제내역 프로시저 호출
    note right of O2oApi
        PKG_AST_01_HANDLE.??? > 결제내역 조회시 __PAY_LATER__ 추가필요
        (결제요청 호출 할때 값이 필요)
    end note
    return
    return
end

group 상점CS 에서 조회시
    note over 상점CS
        [[https://barogo.slack.com/archives/C021G80QZB9/p1652683702820709?thread_ts=1652671814.168859&cid=C021G80QZB9 상점CS에서는 메모로 보여주기로 의사결정]]
        (**걱정** : 상점앱에서 비과세금액을 변경해도 메모가 안바뀌니 착오가 생길것 같은데...)
    end note
end

group 관리자 앱, 관리자CS에서 조회시
    note over 관리자
        [[https://barogo.slack.com/archives/C021G80QZB9/p1652683702820709?thread_ts=1652671814.168859&cid=C021G80QZB9 관리자에서는 빼기로 의사결정]]
        (**걱정** : 상점이 문의하면 확인해주는 용도로 필요할것 같은데...)
    end note
end
@enduml

PlantUML version 1.2022.0(Wed Jan 12 01:16:42 KST 2022)
(GPL source distribution)
Java Runtime: Java(TM) SE Runtime Environment
JVM: Java HotSpot(TM) 64-Bit Server VM
Default Encoding: UTF-8
Language: en
Country: KR
--></g></svg>