<?xml version="1.0" encoding="UTF-8" standalone="no"?><svg xmlns="http://www.w3.org/2000/svg" xmlns:xlink="http://www.w3.org/1999/xlink" contentScriptType="application/ecmascript" contentStyleType="text/css" height="1067px" preserveAspectRatio="none" style="width:678px;height:1067px;background:#FFFFFF;" version="1.1" viewBox="0 0 678 1067" width="678px" zoomAndPan="magnify"><defs><filter height="300%" id="f1lczl9e7s6z42" width="300%" x="-1" y="-1"><feGaussianBlur result="blurOut" stdDeviation="2.0"/><feColorMatrix in="blurOut" result="blurOut2" type="matrix" values="0 0 0 0 0 0 0 0 0 0 0 0 0 0 0 0 0 0 .4 0"/><feOffset dx="4.0" dy="4.0" in="blurOut2" result="blurOut3"/><feBlend in="SourceGraphic" in2="blurOut3" mode="normal"/></filter></defs><g><rect fill="#FFFFFF" filter="url(#f1lczl9e7s6z42)" height="444.832" style="stroke:#A80036;stroke-width:1.0;" width="10" x="39" y="79.7988"/><rect fill="#FFFFFF" filter="url(#f1lczl9e7s6z42)" height="28" style="stroke:#A80036;stroke-width:1.0;" width="10" x="39" y="863.6914"/><rect fill="#FFFFFF" filter="url(#f1lczl9e7s6z42)" height="252.3477" style="stroke:#A80036;stroke-width:1.0;" width="10" x="422" y="272.2832"/><rect fill="#FFFFFF" filter="url(#f1lczl9e7s6z42)" height="203.8184" style="stroke:#A80036;stroke-width:1.0;" width="10" x="422" y="591.252"/><rect fill="#FFFFFF" filter="url(#f1lczl9e7s6z42)" height="63.6211" style="stroke:#A80036;stroke-width:1.0;" width="10" x="427" y="657.873"/><rect fill="#FFFFFF" filter="url(#f1lczl9e7s6z42)" height="29.3105" style="stroke:#A80036;stroke-width:1.0;" width="10" x="427" y="765.7598"/><rect fill="#FFFFFF" filter="url(#f1lczl9e7s6z42)" height="191.8184" style="stroke:#000000;stroke-width:2.0;" width="654" x="10" y="611.252"/><rect fill="#FFFFFF" height="73.5762" style="stroke:none;stroke-width:1.0;" width="654" x="10" y="729.4941"/><rect fill="#FFFFFF" filter="url(#f1lczl9e7s6z42)" height="190.1738" style="stroke:#000000;stroke-width:2.0;" width="265" x="10" y="817.0703"/><line style="stroke:#A80036;stroke-width:1.0;stroke-dasharray:5.0,5.0;" x1="44" x2="44" y1="40.4883" y2="1024.2441"/><line style="stroke:#A80036;stroke-width:1.0;stroke-dasharray:5.0,5.0;" x1="426.5" x2="426.5" y1="40.4883" y2="1024.2441"/><line style="stroke:#A80036;stroke-width:1.0;stroke-dasharray:5.0,5.0;" x1="621" x2="621" y1="40.4883" y2="1024.2441"/><rect fill="#FEFECE" filter="url(#f1lczl9e7s6z42)" height="30.4883" style="stroke:#A80036;stroke-width:1.5;" width="44" x="20" y="5"/><text fill="#000000" font-family="sans-serif" font-size="14" lengthAdjust="spacing" textLength="30" x="27" y="25.5352">ZOO</text><rect fill="#FEFECE" filter="url(#f1lczl9e7s6z42)" height="30.4883" style="stroke:#A80036;stroke-width:1.5;" width="44" x="20" y="1023.2441"/><text fill="#000000" font-family="sans-serif" font-size="14" lengthAdjust="spacing" textLength="30" x="27" y="1043.7793">ZOO</text><rect fill="#FEFECE" filter="url(#f1lczl9e7s6z42)" height="30.4883" style="stroke:#A80036;stroke-width:1.5;" width="69" x="390.5" y="5"/><text fill="#000000" font-family="sans-serif" font-size="14" lengthAdjust="spacing" textLength="55" x="397.5" y="25.5352">GORELA</text><rect fill="#FEFECE" filter="url(#f1lczl9e7s6z42)" height="30.4883" style="stroke:#A80036;stroke-width:1.5;" width="69" x="390.5" y="1023.2441"/><text fill="#000000" font-family="sans-serif" font-size="14" lengthAdjust="spacing" textLength="55" x="397.5" y="1043.7793">GORELA</text><rect fill="#FEFECE" filter="url(#f1lczl9e7s6z42)" height="30.4883" style="stroke:#A80036;stroke-width:1.5;" width="62" x="588" y="5"/><text fill="#000000" font-family="sans-serif" font-size="14" lengthAdjust="spacing" textLength="48" x="595" y="25.5352">타배대사</text><rect fill="#FEFECE" filter="url(#f1lczl9e7s6z42)" height="30.4883" style="stroke:#A80036;stroke-width:1.5;" width="62" x="588" y="1023.2441"/><text fill="#000000" font-family="sans-serif" font-size="14" lengthAdjust="spacing" textLength="48" x="595" y="1043.7793">타배대사</text><rect fill="#FFFFFF" filter="url(#f1lczl9e7s6z42)" height="444.832" style="stroke:#A80036;stroke-width:1.0;" width="10" x="39" y="79.7988"/><rect fill="#FFFFFF" filter="url(#f1lczl9e7s6z42)" height="28" style="stroke:#A80036;stroke-width:1.0;" width="10" x="39" y="863.6914"/><rect fill="#FFFFFF" filter="url(#f1lczl9e7s6z42)" height="252.3477" style="stroke:#A80036;stroke-width:1.0;" width="10" x="422" y="272.2832"/><rect fill="#FFFFFF" filter="url(#f1lczl9e7s6z42)" height="203.8184" style="stroke:#A80036;stroke-width:1.0;" width="10" x="422" y="591.252"/><rect fill="#FFFFFF" filter="url(#f1lczl9e7s6z42)" height="63.6211" style="stroke:#A80036;stroke-width:1.0;" width="10" x="427" y="657.873"/><rect fill="#FFFFFF" filter="url(#f1lczl9e7s6z42)" height="29.3105" style="stroke:#A80036;stroke-width:1.0;" width="10" x="427" y="765.7598"/><line style="stroke:#A80036;stroke-width:1.0;" x1="44" x2="91" y1="66.7988" y2="66.7988"/><line style="stroke:#A80036;stroke-width:1.0;" x1="91" x2="91" y1="66.7988" y2="79.7988"/><line style="stroke:#A80036;stroke-width:1.0;" x1="50" x2="91" y1="79.7988" y2="79.7988"/><polygon fill="#A80036" points="60,75.7988,50,79.7988,60,83.7988,56,79.7988" style="stroke:#A80036;stroke-width:1.0;"/><text fill="#000000" font-family="sans-serif" font-size="13" lengthAdjust="spacing" textLength="192" x="56" y="62.0566">오더생성 (typeCode : 'DELIVERY')</text><line style="stroke:#A80036;stroke-width:1.0;" x1="49" x2="91" y1="114.1094" y2="114.1094"/><line style="stroke:#A80036;stroke-width:1.0;" x1="91" x2="91" y1="114.1094" y2="127.1094"/><line style="stroke:#A80036;stroke-width:1.0;" x1="50" x2="91" y1="127.1094" y2="127.1094"/><polygon fill="#A80036" points="60,123.1094,50,127.1094,60,131.1094,56,127.1094" style="stroke:#A80036;stroke-width:1.0;"/><text fill="#000000" font-family="sans-serif" font-size="13" lengthAdjust="spacing" textLength="42" x="56" y="109.3672">(event)</text><text fill="#000000" font-family="sans-serif" font-size="13" font-weight="bold" lengthAdjust="spacing" textLength="20" x="102" y="109.3672">n초</text><text fill="#000000" font-family="sans-serif" font-size="13" lengthAdjust="spacing" textLength="143" x="122" y="109.3672">후 "특정조건"이 맞는지 판단</text><path d="M54,140.1094 L54,241.1094 L353,241.1094 L353,150.1094 L343,140.1094 L54,140.1094 " fill="#FBFB77" filter="url(#f1lczl9e7s6z42)" style="stroke:#A80036;stroke-width:1.0;"/><path d="M343,140.1094 L343,150.1094 L353,150.1094 L343,140.1094 " fill="#FBFB77" style="stroke:#A80036;stroke-width:1.0;"/><text fill="#000000" font-family="sans-serif" font-size="13" font-weight="bold" lengthAdjust="spacing" textLength="56" x="60" y="157.6777">"특정조건"</text><text fill="#000000" font-family="sans-serif" font-size="13" lengthAdjust="spacing" textLength="0" x="64" y="172.9883"/><text fill="#000000" font-family="sans-serif" font-size="13" lengthAdjust="spacing" textLength="127" x="60" y="188.2988">[고릴라 오더인가?] AND</text><text fill="#000000" font-family="sans-serif" font-size="13" lengthAdjust="spacing" textLength="52" x="60" y="203.6094">[접수 이후</text><text fill="#000000" font-family="sans-serif" font-size="13" font-weight="bold" lengthAdjust="spacing" textLength="20" x="116" y="203.6094">n초</text><text fill="#000000" font-family="sans-serif" font-size="13" lengthAdjust="spacing" textLength="101" x="136" y="203.6094">가 지났는가?] AND</text><text fill="#000000" font-family="sans-serif" font-size="13" lengthAdjust="spacing" textLength="245" x="60" y="218.9199">[부가세설정이 되어있는 상점의 오더인가?] AND</text><text fill="#000000" font-family="sans-serif" font-size="13" lengthAdjust="spacing" textLength="278" x="60" y="234.2305">["타배대사 가상 수행허브" 에 공유한 상점의 오더인가?]</text><polygon fill="#A80036" points="410,268.2832,420,272.2832,410,276.2832,414,272.2832" style="stroke:#A80036;stroke-width:1.0;"/><line style="stroke:#A80036;stroke-width:1.0;" x1="49" x2="416" y1="272.2832" y2="272.2832"/><text fill="#000000" font-family="sans-serif" font-size="13" lengthAdjust="spacing" textLength="198" x="56" y="267.541">(Integration) 오더 공유 (고릴라 API)</text><path d="M54,285.2832 L54,509.2832 L411,509.2832 L411,295.2832 L401,285.2832 L54,285.2832 " fill="#FBFB77" filter="url(#f1lczl9e7s6z42)" style="stroke:#A80036;stroke-width:1.0;"/><path d="M401,285.2832 L401,295.2832 L411,295.2832 L401,285.2832 " fill="#FBFB77" style="stroke:#A80036;stroke-width:1.0;"/><text fill="#000000" font-family="sans-serif" font-size="13" font-weight="bold" lengthAdjust="spacing" textLength="293" x="60" y="302.8516">1. 배달대행료 산정시 오더 발주수수료 제외한 금액을 전달</text><text fill="#000000" font-family="sans-serif" font-size="13" lengthAdjust="spacing" textLength="0" x="64" y="318.1621"/><text fill="#000000" font-family="sans-serif" font-size="13" font-weight="bold" lengthAdjust="spacing" textLength="160" x="60" y="333.4727">2. 타배대사에 공유한 오더 처리</text><text fill="#000000" font-family="sans-serif" font-size="13" lengthAdjust="spacing" textLength="299" x="68" y="348.7832">- "타배대사 가상 수행허브" 외의 타 수행허브에서 히든처리</text><text fill="#000000" font-family="sans-serif" font-size="13" lengthAdjust="spacing" textLength="48" x="76" y="364.0938">- (ZOO)</text><text fill="#000000" font-family="sans-serif" font-size="13" lengthAdjust="spacing" textLength="260" x="84" y="379.4043">- Integration, Push) 타배대사 공유 이벤트 생성</text><text fill="#000000" font-family="sans-serif" font-size="13" lengthAdjust="spacing" textLength="215" x="84" y="394.7148">- 클라이언트) 타배대사 공유되면 히든처리</text><text fill="#000000" font-family="sans-serif" font-size="13" lengthAdjust="spacing" textLength="48" x="76" y="410.0254">- (O2O)</text><text fill="#000000" font-family="sans-serif" font-size="13" lengthAdjust="spacing" textLength="249" x="84" y="425.3359">- 오라클) 오더별로 타배대사 공유여부 Flag 적재</text><text fill="#000000" font-family="sans-serif" font-size="13" lengthAdjust="spacing" textLength="238" x="84" y="440.6465">- 클라이언트) 해당 Flag 를 참조하여 히든처리</text><text fill="#000000" font-family="sans-serif" font-size="13" lengthAdjust="spacing" textLength="0" x="64" y="455.957"/><text fill="#000000" font-family="sans-serif" font-size="13" lengthAdjust="spacing" textLength="186" x="68" y="471.2676">- 라이더,발주허브의 수정권한 제한 (</text><text fill="#000000" font-family="sans-serif" font-size="13" font-weight="bold" lengthAdjust="spacing" textLength="92" x="254" y="471.2676">제한범위 논의필요</text><text fill="#000000" font-family="sans-serif" font-size="13" lengthAdjust="spacing" textLength="4" x="346" y="471.2676">)</text><text fill="#000000" font-family="sans-serif" font-size="13" lengthAdjust="spacing" textLength="320" x="76" y="486.5781">- (ZOO) Client api - 타배대사 공유여부 참조하여 권한 제한</text><text fill="#000000" font-family="sans-serif" font-size="13" lengthAdjust="spacing" textLength="304" x="76" y="501.8887">- (O2O) 프로시저 - 타배대사 공유여부 참조하여 권한 제한</text><polygon fill="#A80036" points="55,520.6309,45,524.6309,55,528.6309,51,524.6309" style="stroke:#A80036;stroke-width:1.0;"/><line style="stroke:#A80036;stroke-width:1.0;stroke-dasharray:2.0,2.0;" x1="49" x2="426" y1="524.6309" y2="524.6309"/><polygon fill="#A80036" points="609,549.9414,619,553.9414,609,557.9414,613,553.9414" style="stroke:#A80036;stroke-width:1.0;"/><line style="stroke:#A80036;stroke-width:1.0;" x1="427" x2="615" y1="553.9414" y2="553.9414"/><text fill="#000000" font-family="sans-serif" font-size="13" lengthAdjust="spacing" textLength="81" x="434" y="549.1992">오더를 공유한다</text><line style="stroke:#A80036;stroke-width:1.0;" x1="427" x2="474" y1="578.252" y2="578.252"/><line style="stroke:#A80036;stroke-width:1.0;" x1="474" x2="474" y1="578.252" y2="591.252"/><line style="stroke:#A80036;stroke-width:1.0;" x1="433" x2="474" y1="591.252" y2="591.252"/><polygon fill="#A80036" points="443,587.252,433,591.252,443,595.252,439,591.252" style="stroke:#A80036;stroke-width:1.0;"/><text fill="#000000" font-family="sans-serif" font-size="13" font-weight="bold" lengthAdjust="spacing" textLength="20" x="439" y="573.5098">n초</text><text fill="#000000" font-family="sans-serif" font-size="13" lengthAdjust="spacing" textLength="126" x="459" y="573.5098">간 배차 이벤트 수신 대기</text><path d="M10,611.252 L72,611.252 L72,618.252 L62,628.252 L10,628.252 L10,611.252 " fill="#EEEEEE" style="stroke:#000000;stroke-width:1.0;"/><rect fill="none" height="191.8184" style="stroke:#000000;stroke-width:2.0;" width="654" x="10" y="611.252"/><text fill="#000000" font-family="sans-serif" font-size="13" font-weight="bold" lengthAdjust="spacing" textLength="17" x="25" y="624.8203">alt</text><text fill="#000000" font-family="sans-serif" font-size="11" font-weight="bold" lengthAdjust="spacing" textLength="4" x="87" y="623.8867">[</text><text fill="#000000" font-family="sans-serif" font-size="11" font-weight="bold" lengthAdjust="spacing" textLength="17" x="91" y="623.8867">n초</text><text fill="#000000" font-family="sans-serif" font-size="11" font-weight="bold" lengthAdjust="spacing" textLength="166" x="112" y="623.8867">내에 타배대사에서 배차가 안된경우]</text><line style="stroke:#A80036;stroke-width:1.0;" x1="432" x2="479" y1="644.873" y2="644.873"/><line style="stroke:#A80036;stroke-width:1.0;" x1="479" x2="479" y1="644.873" y2="657.873"/><line style="stroke:#A80036;stroke-width:1.0;" x1="438" x2="479" y1="657.873" y2="657.873"/><polygon fill="#A80036" points="448,653.873,438,657.873,448,661.873,444,657.873" style="stroke:#A80036;stroke-width:1.0;"/><text fill="#000000" font-family="sans-serif" font-size="13" lengthAdjust="spacing" textLength="4" x="444" y="640.1309">[</text><text fill="#000000" font-family="sans-serif" font-size="13" font-weight="bold" lengthAdjust="spacing" textLength="20" x="448" y="640.1309">n초</text><text fill="#000000" font-family="sans-serif" font-size="13" lengthAdjust="spacing" textLength="142" x="472" y="640.1309">경과시] 배차 이벤트 안오네?</text><polygon fill="#A80036" points="609,688.1836,619,692.1836,609,696.1836,613,692.1836" style="stroke:#A80036;stroke-width:1.0;"/><line style="stroke:#A80036;stroke-width:1.0;" x1="437" x2="615" y1="692.1836" y2="692.1836"/><text fill="#000000" font-family="sans-serif" font-size="13" lengthAdjust="spacing" textLength="117" x="444" y="687.4414">"이제 공유 그만할게요"</text><polygon fill="#A80036" points="55,717.4941,45,721.4941,55,725.4941,51,721.4941" style="stroke:#A80036;stroke-width:1.0;"/><line style="stroke:#A80036;stroke-width:1.0;" x1="49" x2="421" y1="721.4941" y2="721.4941"/><text fill="#000000" font-family="sans-serif" font-size="13" lengthAdjust="spacing" textLength="354" x="61" y="716.752">(open api) "타배대사도 배차 안되네요... 이제 알아서 하세요" 이벤트</text><line style="stroke:#000000;stroke-width:1.0;stroke-dasharray:2.0,2.0;" x1="10" x2="664" y1="730.4941" y2="730.4941"/><text fill="#000000" font-family="sans-serif" font-size="11" font-weight="bold" lengthAdjust="spacing" textLength="4" x="15" y="741.1289">[</text><text fill="#000000" font-family="sans-serif" font-size="11" font-weight="bold" lengthAdjust="spacing" textLength="17" x="19" y="741.1289">n초</text><text fill="#000000" font-family="sans-serif" font-size="11" font-weight="bold" lengthAdjust="spacing" textLength="156" x="40" y="741.1289">내에 타배대사에서 배차가 된경우]</text><polygon fill="#A80036" points="448,761.7598,438,765.7598,448,769.7598,444,765.7598" style="stroke:#A80036;stroke-width:1.0;"/><line style="stroke:#A80036;stroke-width:1.0;" x1="442" x2="620" y1="765.7598" y2="765.7598"/><text fill="#000000" font-family="sans-serif" font-size="13" lengthAdjust="spacing" textLength="123" x="454" y="761.0176">배차,픽업,완료... 이벤트</text><polygon fill="#A80036" points="55,791.0703,45,795.0703,55,799.0703,51,795.0703" style="stroke:#A80036;stroke-width:1.0;"/><line style="stroke:#A80036;stroke-width:1.0;" x1="49" x2="426" y1="795.0703" y2="795.0703"/><text fill="#000000" font-family="sans-serif" font-size="13" lengthAdjust="spacing" textLength="189" x="61" y="790.3281">(open api) 배차,픽업,완료... 이벤트</text><path d="M10,817.0703 L72,817.0703 L72,824.0703 L62,834.0703 L10,834.0703 L10,817.0703 " fill="#EEEEEE" style="stroke:#000000;stroke-width:1.0;"/><rect fill="none" height="190.1738" style="stroke:#000000;stroke-width:2.0;" width="265" x="10" y="817.0703"/><text fill="#000000" font-family="sans-serif" font-size="13" font-weight="bold" lengthAdjust="spacing" textLength="17" x="25" y="830.6387">alt</text><text fill="#000000" font-family="sans-serif" font-size="11" font-weight="bold" lengthAdjust="spacing" textLength="183" x="87" y="829.7051">[ZOO 에서 완료 이벤트를 수신할 경우]</text><line style="stroke:#A80036;stroke-width:1.0;" x1="49" x2="91" y1="855.6914" y2="855.6914"/><line style="stroke:#A80036;stroke-width:1.0;" x1="91" x2="91" y1="855.6914" y2="868.6914"/><line style="stroke:#A80036;stroke-width:1.0;" x1="50" x2="91" y1="868.6914" y2="868.6914"/><polygon fill="#A80036" points="60,864.6914,50,868.6914,60,872.6914,56,868.6914" style="stroke:#A80036;stroke-width:1.0;"/><text fill="#000000" font-family="sans-serif" font-size="13" lengthAdjust="spacing" textLength="149" x="56" y="850.9492">오라클 정산프로시저 02 실행</text><path d="M49,911.6914 L49,997.6914 L258,997.6914 L258,921.6914 L248,911.6914 L49,911.6914 " fill="#FBFB77" filter="url(#f1lczl9e7s6z42)" style="stroke:#A80036;stroke-width:1.0;"/><path d="M248,911.6914 L248,921.6914 L258,921.6914 L248,911.6914 " fill="#FBFB77" style="stroke:#A80036;stroke-width:1.0;"/><text fill="#000000" font-family="sans-serif" font-size="13" lengthAdjust="spacing" textLength="170" x="55" y="929.2598">타배대사 공유여부 Flag 참조하여</text><text fill="#000000" font-family="sans-serif" font-size="13" lengthAdjust="spacing" textLength="155" x="55" y="944.5703">별도 로직이 필요할지 검토필요</text><text fill="#000000" font-family="sans-serif" font-size="13" lengthAdjust="spacing" textLength="0" x="59" y="959.8809"/><text fill="#000000" font-family="sans-serif" font-size="13" lengthAdjust="spacing" textLength="188" x="55" y="975.1914">타배대사와 정산시 충분한 데이터일지</text><text fill="#000000" font-family="sans-serif" font-size="13" lengthAdjust="spacing" textLength="48" x="55" y="990.502">검토 필요</text><!--MD5=[a84eb6c244c9bbb41251b515843a9b7a]
@startuml
ZOO -> ZOO ++ : 오더생성 (typeCode : 'DELIVERY')
ZOO -> ZOO : (event) **n초**후 "특정조건"이 맞는지 판단
note right of ZOO
    **"특정조건"**

    [고릴라 오더인가?] AND
    [접수 이후 **n초**가 지났는가?] AND
    [부가세설정이 되어있는 상점의 오더인가?] AND
    ["타배대사 가상 수행허브" 에 공유한 상점의 오더인가?]
end note

ZOO -> GORELA ++ : (Integration) 오더 공유 (고릴라 API)
note right of ZOO
    **1. 배달대행료 산정시 오더 발주수수료 제외한 금액을 전달**

    **2. 타배대사에 공유한 오더 처리**
      - "타배대사 가상 수행허브" 외의 타 수행허브에서 히든처리
        - (ZOO)
          - Integration, Push) 타배대사 공유 이벤트 생성
          - 클라이언트) 타배대사 공유되면 히든처리
        - (O2O)
          - 오라클) 오더별로 타배대사 공유여부 Flag 적재
          - 클라이언트) 해당 Flag 를 참조하여 히든처리

      - 라이더,발주허브의 수정권한 제한 (**제한범위 논의필요**)
        - (ZOO) Client api - 타배대사 공유여부 참조하여 권한 제한
        - (O2O) 프로시저 - 타배대사 공유여부 참조하여 권한 제한
end note
return
deactivate ZOO

GORELA -> 타배대사 : 오더를 공유한다
GORELA -> GORELA ++ : **n초**간 배차 이벤트 수신 대기

alt **n초** 내에 타배대사에서 배차가 안된경우
    GORELA -> GORELA ++ : [**n초** 경과시] 배차 이벤트 안오네?
    GORELA -> 타배대사 : "이제 공유 그만할게요"
    GORELA -> ZOO : (open api) "타배대사도 배차 안되네요... 이제 알아서 하세요" 이벤트
    deactivate
else **n초** 내에 타배대사에서 배차가 된경우
    타배대사 -> GORELA ++ : 배차,픽업,완료... 이벤트
    GORELA -> ZOO : (open api) 배차,픽업,완료... 이벤트
    deactivate GORELA
    deactivate GORELA
end


alt ZOO 에서 완료 이벤트를 수신할 경우
    ZOO -> ZOO ++ : 오라클 정산프로시저 02 실행
    note right of ZOO
        타배대사 공유여부 Flag 참조하여 
        별도 로직이 필요할지 검토필요

        타배대사와 정산시 충분한 데이터일지
        검토 필요
    end note
deactivate
end



@enduml

PlantUML version 1.2022.0(Wed Jan 12 01:16:42 KST 2022)
(GPL source distribution)
Java Runtime: Java(TM) SE Runtime Environment
JVM: Java HotSpot(TM) 64-Bit Server VM
Default Encoding: UTF-8
Language: en
Country: KR
--></g></svg>